<svg version="1" xmlns="http://www.w3.org/2000/svg" width="346.667" height="346.667" viewBox="0 0 260.000000 260.000000"><path d="M126.1 1.9c-1.8.5-2.8 2-4.2 6.1-1 3-1.8 6.3-1.8 7.3-.1 1-.8 4-1.7 6.6-1.8 5.6-4.6 7.5-12.1 8.5-2.9.4-7.4 1.6-10 2.7-7.3 3.2-14.5 5.3-17.3 5-3.9-.4-10.8-4.2-14.3-7.8-1.8-1.8-3.7-3.3-4.4-3.3-.6 0-1.3-.6-1.6-1.3-.3-.9-.9-.7-2.4.6-1.1.9-2.2 1.5-2.5 1.2-.6-.6-15 11.3-17.6 14.5-1.8 2.3-1.8 2.4 2.4 9.8 2.4 4.2 4.7 7.8 5.1 8.1 1.4 1 3.3 5 3.3 6.7C47 69 42.1 79 41 79c-.6 0-1 .7-1 1.6 0 .8-1.3 4.1-2.9 7.2-1.6 3.1-3.6 7.4-4.4 9.4-2.1 4.8-5.3 6.8-11.9 7.3-13.2 1-16.2 1.6-17.6 3.7-1.6 2.2-2.2 7.4-2.2 19.6-.1 8.2.4 10.7 1.9 9.8.4-.3 4.1.4 8.2 1.6 4.1 1.1 8.9 2.2 10.7 2.5 3.9.6 6.7 4 7.6 9 .4 2.1 1.7 6.7 2.9 10.3 1.1 3.6 2.2 6.7 2.2 7 .1.3 1.1 2.5 2.3 5 3.1 6.6 2.8 9.8-1.3 14.5-2 2.2-5 6-6.7 8.5-1.7 2.5-3.7 5-4.4 5.6-1.1.9-1 1.4.4 3 1 1 2.6 3.3 3.7 5.1 1.1 1.7 4.7 6 8.1 9.5l6.1 6.4 3.4-1.7c1.9-1 3.9-2.2 4.4-2.6C53.3 219 64 213 65.3 213c2 0 8.7 3 10.5 4.7.6.6 2.2 1.5 3.5 1.8 5.1 1.5 23.7 11.1 24.1 12.5 1.1 3.7 1.7 10.1 1.7 17.4 0 4.3.2 7.6.5 7.3.3-.3 2.7.1 5.4.8 5 1.3 22.9 1.8 24.7.7.5-.4 2.1-5.4 3.4-11.1 3.2-13.8 4-14.7 17.1-18 5.8-1.5 12.5-3.9 15.1-5.4 7.1-4.2 11.1-3.7 17.8 1.9 3 2.6 6.1 5.5 7 6.5.9 1.1 2 1.9 2.4 1.9.5 0 1.6.7 2.6 1.6 1.6 1.4 1.9 1.4 4.1-.5 4.9-4.2 6.7-5.7 10.4-8.6 5.8-4.5 9.4-8.1 9.4-9.3 0-1.7-3.3-8.2-4.1-8.2-.3 0-1.2-1.3-1.9-3-.7-1.6-1.6-3-2-3-1.3 0-4-6.6-4-9.7 0-1.6 1.3-4.9 2.8-7.4 1.6-2.4 3.1-5.1 3.5-5.9.4-.8 1.6-2.9 2.6-4.5 1.1-1.7 2.9-5.8 4.1-9.2 3.1-9.1 5.1-10.2 19.1-10.8 6.2-.3 11.4-.7 11.7-1 .6-.6 1.1-27.6.6-29.7-.5-1.7-5-2.9-15.4-4.3-5-.7-8.4-2.5-9.9-5.3-.5-1-1.9-5.8-3.1-10.6-1.2-4.8-3.5-11.6-5.1-15.1-1.6-3.6-2.9-7.9-2.9-9.6 0-3.3 3.3-8.2 11.2-16.5l3.9-4.1-3.5-6c-1.9-3.3-4.6-6.7-5.9-7.6-1.4-.9-4.4-3.6-6.9-6.1l-4.4-4.6-4.9 3.3c-2.8 1.7-7.3 4.4-10 5.8-4.6 2.4-5.4 2.5-10 1.4-2.8-.6-7.2-2.6-9.9-4.3-2.8-1.8-5.7-3.2-6.6-3.2-2.7 0-14.2-6.4-16.2-9-1.7-2.3-2.3-6.9-2.8-22 0-1.8-3.9-3.6-9.5-4.4-6.6-1-16.8-1.4-19.4-.7zm12.5 87c8.1 1.2 20.3 8.6 25.6 15.6 6.7 8.8 8.2 16.6 6.4 34.5-.7 8.1-6.6 20.7-12.1 26.2-3.7 3.7-14.8 7.1-23 7.1-7.8 0-18.4-1.6-22.9-3.6-9.4-3.9-19.9-15-23-24.1-4.8-13.9 1.3-36.8 12.5-47.5 8.4-8.1 19.7-10.6 36.5-8.2z"/></svg>